<svg width="18" height="16" viewBox="0 0 18 16" xmlns="http://www.w3.org/2000/svg"><title>badge/eggplant-cancel</title><g fill="none" fill-rule="evenodd"><g opacity=".5"><path d="M10.123 3.99c-.788 1.168-.062 2.141-2.891 2.78-1.256.285-2.29.204-3.365 1.002-1.498 1.112-1.788 3.753-.261 5.146 3.573 3.081 9.895-.814 10.775-6.687" fill="#D76AD2"/><path d="M11.013 3.902c-.53 1.962-1.36 2.547-4.316 3.232-1.46.338-2.047.557-2.787 1.119-.964.733-.97 2.606.111 3.62 2.738 2.938 9.09-1.22 9.863-6.5.295-2.018-.112-2.658-.919-2.626-.8.031-1.836.725-1.952 1.155z" stroke="#000" stroke-width="1.75" opacity=".6" style="mix-blend-mode:soft-light"/><path d="M4.199 10.447C4.199 9 5.145 8.056 6.932 8" stroke="#FFF" stroke-linecap="round"/><path d="M10.259 3.594c-.803 1.214-.064 2.225-2.944 2.89-1.278.295-2.331.212-3.425 1.041-1.525 1.156-1.82 3.902-.266 5.35 3.638 3.204 10.073-.847 10.969-6.952" stroke="#31323D"/><path d="M13.76 2.402c.633-1.12 1.234-1.381 1.778-1.43" stroke="#31323D" stroke-linecap="round"/><path d="M10.164 2.244c2.507-1.696 5.767.18 5.856 3.246.089 3.066-2.072.864-2.292-.369-1.311 1.736-3.082 1.228-2.19-1.138-1.062.555-3.688.308-1.374-1.739z" fill="#AAE350"/><path d="M10.692 2.259c2.34-1.322 4.808 0 5.115 2.99.266 2.353-1.647.232-1.91-.726-1.053 1.414-2.678.977-1.954-1.107-.862.359-3.076.265-1.251-1.157z" stroke="#000" style="mix-blend-mode:soft-light"/><path d="M10.164 2.244c2.507-1.696 5.767.18 5.856 3.246.089 3.066-2.072.864-2.292-.369-1.311 1.736-3.082 1.228-2.19-1.138-1.062.555-3.688.308-1.374-1.739z" stroke="#31323D"/></g><path d="M3 2.5l11.542 11.08" stroke="#FFF" stroke-width="3" stroke-linecap="round"/><path d="M3 2.5l11.542 11.08" stroke="#31323D" stroke-width="1.5" stroke-linecap="round"/></g></svg>