<svg width="37" height="34" viewBox="0 0 37 34" xmlns="http://www.w3.org/2000/svg"><g fill="none" fill-rule="evenodd"><path d="M16.97 31.7L4.42 19.33l-.1-.1C.16 15.03-.14 8.5 3.72 4.7c3.63-3.6 9.73-3.54 14.02-.04 4.28-3.5 10.4-3.55 14.02.04 3.85 3.8 3.57 10.34-.64 14.57l-.1.1L18.5 31.7c-.2.2-.48.32-.77.32-.28 0-.56-.1-.76-.3z" fill="#E76FD2"/><path d="M5.93 18L18.2 29.85l12.23-11.8.08-.1c3.62-3.75 3.86-9.47.7-12.7-2.96-3-8.05-3-11.7.08l-1.3 1.1-1.3-1.1c-3.65-3.1-8.73-3.1-11.7-.08-3.15 3.22-2.9 8.94.67 12.68l.06.07z" stroke="#D24BA9" stroke-width="4"/><path d="M25.17 5.7c1.95 0 4.65 2.37 4.65 5.62" stroke="#FFF" stroke-width="3" stroke-linecap="round"/><path d="M4.5 19.4l-.08-.1C.12 14.84-.18 7.9 3.8 3.86 7.52.03 13.8.1 18.2 3.8 22.6.1 28.88.04 32.62 3.85c3.95 4.03 3.66 10.98-.66 15.48l-.1.1L18.2 32.9 4.5 19.4z" stroke="#000" stroke-width="1.5"/></g></svg>