<svg xmlns="http://www.w3.org/2000/svg" width="315.83" height="72.16" viewBox="0 0 315.83 72.16"><title>logo</title><g data-name="Layer 2"><g data-name="deets"><path d="M99.67 24.92c6.25 0 10.21 3.6 11.25 9.14h-4.59c-1.08-2.93-3-4.91-6.66-4.91-4.86 0-7.83 4.23-7.83 10s2.93 10 7.83 10c3.69 0 5.58-2 6.66-4.95h4.59c-1 5.58-5 9.18-11.25 9.18-7.11 0-12.55-5.76-12.55-14.26s5.44-14.2 12.55-14.2zm26.01 12.65a5 5 0 0 0-2.65-.68 3.9 3.9 0 0 0-4 3.2V53h-4.5V33H119v2.07a5 5 0 0 1 4.46-2.52 5.55 5.55 0 0 1 2.2.36zm7.01 23.08l2.83-7.11L127.78 33h4.82l5.22 14.72L143 33h4.63l-10.58 27.65zm22.19 0h-4.5V33h4.5v1.71a6.83 6.83 0 0 1 5.12-2.14c5.85 0 9.27 4.86 9.27 10.44s-3.45 10.44-9.27 10.44a6.79 6.79 0 0 1-5.09-2.16zm0-13.86a4.86 4.86 0 0 0 4.32 2.66c3.47 0 5.54-2.75 5.54-6.44s-2.07-6.43-5.54-6.43a4.87 4.87 0 0 0-4.32 2.65zm18.88-10.03h-3.15V33h3.15v-5.33h4.5V33h4.5v3.74h-4.5v10.37a2.1 2.1 0 0 0 2.38 2.34 4.83 4.83 0 0 0 2.57-.81v4.09a7 7 0 0 1-3.38.72c-3.55 0-6.07-1.89-6.07-5.85zm20.98 16.69c-5.62 0-9.49-4.32-9.49-10.44s3.87-10.44 9.49-10.44 9.5 4.32 9.5 10.44-3.87 10.44-9.5 10.44zm0-17c-3.24 0-5 2.79-5 6.57s1.75 6.57 5 6.57 5-2.79 5-6.57-1.74-6.58-5-6.58zm18.19 2.15l11.47-13.23h5.9l-11.16 12.56L230.7 53h-5.85l-9.09-11.83-2.83 3.24V53h-4.68V25.37h4.68zm22.86-8.86a2.75 2.75 0 1 1 2.79-2.74 2.8 2.8 0 0 1-2.79 2.74zM238 53h-4.5V33h4.5zm5.88-16.24h-3.15V33h3.15v-5.33h4.5V33h4.5v3.74h-4.5v10.37a2.1 2.1 0 0 0 2.38 2.34 4.83 4.83 0 0 0 2.57-.81v4.09a7 7 0 0 1-3.38.72c-3.55 0-6.07-1.89-6.07-5.85zm14.61 0h-3.15V33h3.15v-5.33H263V33h4.5v3.74H263v10.37a2.11 2.11 0 0 0 2.39 2.34 4.8 4.8 0 0 0 2.56-.81v4.09a7 7 0 0 1-3.37.72c-3.56 0-6.08-1.89-6.08-5.85zm14.95-7.02a2.75 2.75 0 1 1 2.79-2.74 2.8 2.8 0 0 1-2.79 2.74zM275.69 53h-4.5V33h4.5zm21.37-6.21c-.68 4-3.6 6.66-8.42 6.66-5.58 0-9.45-4.23-9.45-10.39 0-6 3.92-10.49 9.36-10.49 5.63 0 8.69 4 8.69 9.86v1.62H283.6c.14 3.51 2.16 5.62 5 5.62 2.16 0 3.78-.94 4.28-2.88zm-13.32-6h9c0-2.43-1.44-4.41-4.18-4.41-2.44-.03-4.28 1.5-4.82 4.38zm20.39 6.45c.5 1.67 2 2.52 4 2.52s3.42-.81 3.42-2.38c0-1.08-.67-1.67-2.34-2.07l-4.14-1c-2.83-.68-4.95-2.21-4.95-5.49 0-3.6 3.2-6.26 7.56-6.26 4.68 0 7.34 2.25 8 5.9h-4.41c-.4-1.31-1.57-2.21-3.64-2.21-1.58 0-3.2.72-3.2 2.3 0 .9.63 1.48 2.07 1.84l4.23 1c3.42.81 5.13 2.75 5.13 5.67 0 4-3.28 6.39-7.78 6.39-4.68 0-7.92-2.34-8.51-6.21z" fill="#31323d"/><ellipse cx="35.2" cy="37.99" rx="35.2" ry="34.18" fill="#ffd9ff"/><path d="M48.33 57.55a59.68 59.68 0 0 0 6.75-7.21A5.9 5.9 0 0 0 59.2 50a14.53 14.53 0 0 1-3-3.25 6.36 6.36 0 0 0 5.61-.51s-5.36-3-6.12-5.37c-2.82-8.86-2.6-9.66-2.6-9.66 1.62-4.31 2.98-9.21 1.74-10.81-1.6-2.06-3.58 1.16-8.5 4.48 0 0-2.95-2.81-10.87-2.81-5.23 0-10.5 2.86-10.5 2.86-2.25-1.65-3.72-3.18-5.5-4.22-2.72-1.57-4-.13-3 3.33.41 1.4 1.05 4.46 1.68 7.19.46 2 0 1.51-1.59 7.52a20.67 20.67 0 0 1-2.15 4.15 8.55 8.55 0 0 1-5 3.31 6.37 6.37 0 0 0 5.61.51A14.53 14.53 0 0 1 12.05 50a5.91 5.91 0 0 0 4.12.37 14.89 14.89 0 0 0 6.44 6.87s3.39 3.88 12.86 3.88c8.59 0 12.86-3.57 12.86-3.57z" fill="#ffe888"/><path d="M27.8 23.42s-9.65 9.15-8.37 21.63c1.4 13.72 16 16.07 16 16.07s-11.62.63-19.3-10.78c0 0-2.78 1-4.12-.37 0 0 2.5-1.61 2.95-3.25a6 6 0 0 1-5.61-.51 9.16 9.16 0 0 0 5.67-4.38c3.18-5.4 3.25-14.23 12.78-18.41z" fill="#eaba5c"/><path d="M23.39 26.54s-1.93-1.54-4.11-3.21c-1.72-1.29-2.5-1.32-2.93.11l2 8.5 1.86-1.18 1.52-2.52z" fill="#eaba5c"/><path fill="#fd71f3" d="M42.31 10.92L35.61.4l-6.7 10.44 6.7 8.01 6.7-7.93z"/><path fill="#ffccfe" d="M42.31 10.92l-6.7-2.38-6.7 2.3 6.7 2.21 6.7-2.13z"/><path fill="#f930e7" opacity=".99" d="M32.44 10.51l3.17-9.26-6.7 9.59 6.7 7.28-3.17-7.61z"/><path fill="#ffa4ff" opacity=".99" d="M32.44 10.51l.44-1.3-3.97 1.63 4.36 1.66-.83-1.99z"/><path d="M47.91 26.54S49.84 25 52 23.33c1.75-1.33 2.53-1.33 3 .11l-2 8.5-1.86-1.18-1.52-2.52z" fill="#eaba5c"/><path d="M16.17 50.34a5.91 5.91 0 0 1-4.12-.34A14.53 14.53 0 0 0 15 46.72a6.37 6.37 0 0 1-5.61-.51 8.57 8.57 0 0 0 5.67-4.38c1.33-2.61 3.11-7.77 4.55-10.38 3.68-6.72 8.48-9.38 15.85-9.38 6.85 0 12.55 2.66 16.23 9.38 1.44 2.61 3.21 7.77 4.55 10.38a8.57 8.57 0 0 0 5.67 4.38 6.37 6.37 0 0 1-5.61.51 14.19 14.19 0 0 0 3 3.25 5.91 5.91 0 0 1-4.12.37S48.4 61.12 35.65 61.12 16.17 50.34 16.17 50.34z" fill="none" stroke="#44392e" stroke-linecap="round" stroke-linejoin="round" stroke-width=".86"/><path fill="none" stroke="#3d2a3f" stroke-linecap="round" stroke-linejoin="round" stroke-width=".8" d="M42.31 10.92L35.61.4l-6.7 10.44 6.7 8.01 6.7-7.93z"/><path fill="none" stroke="#3d2a3f" stroke-linecap="round" stroke-linejoin="round" stroke-width=".8" d="M42.31 10.92l-6.7-2.63-6.7 2.55 6.7 2.55 6.7-2.47z"/><path fill="none" stroke="#3d2a3f" stroke-linecap="round" stroke-miterlimit="10" stroke-width=".8" d="M35.61.4v18.45"/><path fill="none" stroke="#ff6cf5" stroke-linecap="round" stroke-miterlimit="10" stroke-width="1.25" d="M42 5.32l3.18-2.06M27.52 16.25l-1.46 1.07m1.29-12.53l-2.38-1.76m17.51 12.59l1.8 1.25"/><path d="M24.62 24.67s-4.07-3.11-5.16-4c-2-1.54-4-.8-3.23 2.36.51 2.09 2.15 8.87 2.15 8.87m27.95-7.02l5.49-4.21c2-1.54 4-.81 3.24 2.35-.51 2.09-2.14 8.92-2.14 8.92" fill="none" stroke="#44392e" stroke-linecap="round" stroke-linejoin="round" stroke-width=".86"/><circle cx="22.95" cy="37.01" r="6.79" fill="#fff" stroke="#44392e" stroke-miterlimit="10" stroke-width=".86"/><circle cx="22.99" cy="36.14" r="3.99" fill="#f930e7" stroke="#f930e7" stroke-miterlimit="10" stroke-width="1.179"/><ellipse cx="22.94" cy="33.29" rx="1.96" ry="1.95" transform="rotate(-45.03 22.934 33.296)" fill="#fff"/><circle cx="48.4" cy="37.01" r="6.79" fill="#fff" stroke="#44392e" stroke-miterlimit="10" stroke-width=".86"/><circle cx="48.44" cy="36.14" r="3.99" fill="#f930e7" stroke="#f930e7" stroke-miterlimit="10" stroke-width="1.179"/><ellipse cx="48.39" cy="33.29" rx="1.96" ry="1.95" transform="rotate(-45.03 48.393 33.29)" fill="#fff"/><path d="M39.55 48.92c0 2.29-1.71 4.8-3.82 4.8s-3.83-2.51-3.83-4.79l3.82-2.4z" fill="#44392e"/><path d="M38.82 52.17a4.3 4.3 0 0 0-6.24.06l3.15 1.36z" fill="#f930e7"/><path d="M32.83 52.3c.27-.82 1.47-1.44 2.9-1.44a3.18 3.18 0 0 1 2.83 1.27" fill="none" stroke="#44392e" stroke-linecap="round" stroke-miterlimit="10" stroke-width=".589"/><path fill="none" stroke="#fff" stroke-linecap="round" stroke-linejoin="round" stroke-width="2.246" d="M35.46 47.69h.55"/><path d="M45.64 47.92a5.94 5.94 0 0 1-3.11 1.32 8.45 8.45 0 0 1-3.39-.24 6.73 6.73 0 0 1-3-1.71 3.4 3.4 0 0 1-.91-1.68 4.53 4.53 0 0 1-.06-.5v-1.23a.62.62 0 0 1 .6-.64.61.61 0 0 1 .65.6v1.23a1.61 1.61 0 0 0 0 .31 2.29 2.29 0 0 0 .57 1.17 5.7 5.7 0 0 0 2.51 1.59 7.75 7.75 0 0 0 3.06.42 5.41 5.41 0 0 0 2.88-1 .24.24 0 0 1 .34.05.23.23 0 0 1-.14.31z" fill="#44392e"/><path d="M26.56 47.58a4.64 4.64 0 0 0 2.83 1 7.35 7.35 0 0 0 3-.54 5.2 5.2 0 0 0 2.34-1.71 2 2 0 0 0 .39-1.17v-1.6a.62.62 0 0 1 .63-.62.63.63 0 0 1 .62.62v1.62A3.11 3.11 0 0 1 35.6 47a6.13 6.13 0 0 1-2.92 1.88 8.07 8.07 0 0 1-3.34.37 5.16 5.16 0 0 1-3.07-1.33.21.21 0 0 1 0-.31.21.21 0 0 1 .29-.03z" fill="#44392e"/><path d="M39.55 49.29c0 2.13-1.71 4.3-3.82 4.3s-3.83-2.17-3.83-4.3" fill="none" stroke="#44392e" stroke-linecap="round" stroke-miterlimit="10" stroke-width=".982"/><path d="M32.49 43.53a.8.8 0 0 1 .17-.81 4.31 4.31 0 0 1 3.16-1.12 3.78 3.78 0 0 1 3 1.06.81.81 0 0 1 .12.83 1 1 0 0 1-.9.63 2 2 0 0 0-1.62.81l-.09.11a.86.86 0 0 1-1.27-.04s-.36-.64-1.69-.75a1 1 0 0 1-.88-.69zM30.65 45a15.56 15.56 0 0 0-7.58.22 11.79 11.79 0 0 0-6.17 4.46 12 12 0 0 1 6-4.86 15.93 15.93 0 0 1 7.87-.66.42.42 0 0 1 .36.48.43.43 0 0 1-.48.37z" fill="#44392e"/><path d="M30.73 46.09a9 9 0 0 0-5 .89A5 5 0 0 0 24 48.8a8.21 8.21 0 0 0-.86 2.48 8.33 8.33 0 0 1 .67-2.58 5.24 5.24 0 0 1 1.72-2.08A6.86 6.86 0 0 1 28 45.55a14.53 14.53 0 0 1 2.7-.32.43.43 0 0 1 0 .86zm9.88-1.97a15.93 15.93 0 0 1 7.87.66 12 12 0 0 1 6 4.86 11.79 11.79 0 0 0-6.17-4.46 15.56 15.56 0 0 0-7.55-.18.43.43 0 0 1-.51-.33.43.43 0 0 1 .33-.51z" fill="#44392e"/><path d="M40.68 45.23a14.53 14.53 0 0 1 2.7.32 6.86 6.86 0 0 1 2.52 1.07 5.32 5.32 0 0 1 1.72 2.08 8.33 8.33 0 0 1 .67 2.58 8.21 8.21 0 0 0-.86-2.48 5 5 0 0 0-1.77-1.8 9 9 0 0 0-5-.89.44.44 0 0 1-.45-.42.44.44 0 0 1 .42-.44z" fill="#44392e"/></g></g></svg>