<svg width="18" height="16" viewBox="0 0 18 16" xmlns="http://www.w3.org/2000/svg"><title>badge/for-sale-cancel</title><g fill="none" fill-rule="evenodd"><g transform="rotate(11 9 10.827)" opacity=".5"><path d="M7.383 2.8L14.65 7v.001a1 1 0 0 1 .365 1.366l-2.892 5.01a1 1 0 0 1-1.378.358L3.477 9.397a1 1 0 0 1-.466-.652L2.259 5.18A1 1 0 0 1 2.9 4.033l3.644-1.309a1 1 0 0 1 .839.076z" fill="#FCA375"/><path d="M13.966 7.184L7.132 3.233a.5.5 0 0 0-.419-.038L3.07 4.504a.5.5 0 0 0-.32.573l.75 3.565a.5.5 0 0 0 .233.326l7.268 4.338a.499.499 0 0 0 .69-.179l2.89-5.01a.5.5 0 0 0-.182-.682l-.433-.25z" stroke="#2C313C" opacity=".599" style="mix-blend-mode:overlay"/><path d="M2.706 9.216l7.674 4.424a1 1 0 0 0 1.366-.366l1.607-2.784L1.78 4.091l.927 5.125z" fill="#FA814F"/><path d="M13.36 7.507l-2.366-1.285" stroke="#FFF" stroke-linecap="round" stroke-linejoin="round"/><path d="M15.29 6.893a1.5 1.5 0 0 1 .158 1.725l-2.892 5.01a1.5 1.5 0 0 1-2.049.548l-.019-.01-7.267-4.34a1.5 1.5 0 0 1-.7-.978l-.75-3.564a1.5 1.5 0 0 1 .96-1.721l3.644-1.31a1.5 1.5 0 0 1 1.258.114l7.7 4.452-.043.074z" stroke="#31323D" stroke-linecap="round" stroke-linejoin="round"/><circle fill="#31323D" cx="5.392" cy="6.158" r="1"/></g><g stroke-linecap="round"><path d="M15 2.5L3.458 13.58" stroke="#FFF" stroke-width="3"/><path d="M15 2.5L3.458 13.58" stroke="#31323D" stroke-width="1.5"/></g></g></svg>